HIERARCHY
ROOT hip
{
	OFFSET 0.000000 0.000000 0.000000 
	CHANNELS 6 Xposition Yposition Zposition Xrotation Zrotation Yrotation
	JOINT abdomen
	{
		OFFSET 0.000000 3.402643 0.000000 
		CHANNELS 3 Xrotation Zrotation Yrotation
		JOINT chest
		{
			OFFSET 0.000000 8.438565 -0.680529 
			CHANNELS 3 Xrotation Zrotation Yrotation
			JOINT neck
			{
				OFFSET 0.000000 10.207942 -0.272212 
				CHANNELS 3 Xrotation Zrotation Yrotation
				JOINT head
				{
					OFFSET 0.000000 3.130431 0.000000 
					CHANNELS 3 Xrotation Zrotation Yrotation
					End Site
					{
						OFFSET 0.000000 3.130435 0.000000 
					}
				}
			}
			JOINT lCollar
			{
				OFFSET 3.470700 6.669187 -0.816635 
				CHANNELS 3 Yrotation Zrotation Xrotation
				JOINT lShldr
				{
					OFFSET 3.198488 0.000000 0.000000 
					CHANNELS 3 Zrotation Yrotation Xrotation
					JOINT lForeArm
					{
						OFFSET 10.139888 0.000000 0.000000 
						CHANNELS 3 Yrotation Zrotation Xrotation
						JOINT lHand
						{
							OFFSET 8.370511 0.000000 0.000000 
							CHANNELS 3 Zrotation Yrotation Xrotation
							End Site
							{
								OFFSET 4.083176 0.000000 0.000000 
							}
						}
					}
				}
			}
			JOINT rCollar
			{
				OFFSET -3.470700 6.669187 -0.816635 
				CHANNELS 3 Yrotation Zrotation Xrotation
				JOINT rShldr
				{
					OFFSET -3.198488 0.000000 0.000000 
					CHANNELS 3 Zrotation Yrotation Xrotation
					JOINT rForeArm
					{
						OFFSET -10.139888 0.000000 0.000000 
						CHANNELS 3 Yrotation Zrotation Xrotation
						JOINT rHand
						{
							OFFSET -8.370511 0.000000 0.000000 
							CHANNELS 3 Zrotation Yrotation Xrotation
							End Site
							{
								OFFSET -4.083176 0.000000 0.000000 
							}
						}
					}
				}
			}
		}
	}
	JOINT lThigh
	{
		OFFSET 5.308129 -1.633274 1.361059 
		CHANNELS 3 Xrotation Zrotation Yrotation
		JOINT lShin
		{
			OFFSET -2.041588 -20.007561 0.000000 
			CHANNELS 3 Xrotation Zrotation Yrotation
			JOINT lFoot
			{
				OFFSET 0.000000 -19.190928 -1.224953 
				CHANNELS 3 Xrotation Yrotation Zrotation
				End Site
				{
					OFFSET 0.000000 -2.449906 4.627600 
				}
			}
		}
	}
	JOINT rThigh
	{
		OFFSET -5.308129 -1.633274 1.361059 
		CHANNELS 3 Xrotation Zrotation Yrotation
		JOINT rShin
		{
			OFFSET 2.041588 -20.007561 0.000000 
			CHANNELS 3 Xrotation Zrotation Yrotation
			JOINT rFoot
			{
				OFFSET 0.000000 -19.190928 -1.224953 
				CHANNELS 3 Xrotation Yrotation Zrotation
				End Site
				{
					OFFSET 0.000000 -2.449906 4.627600 
				}
			}
		}
	}
}
MOTION
Frames: 15
Frame Time: 0.016667
3.964787 42.033089 -22.368517 -3.779740 4.209610 -42.982899 -18.457600 -0.429540 0.133075 16.922501 1.549610 -0.088607 3.982180 -0.037175 4.116720 7.948880 5.379600 2.381880 2.000000 -2.000000 0.000000 96.162804 -174.238998 -7.926730 124.199997 -0.132513 0.130953 0.053389 -0.052272 -155.934998 -2.000000 2.000000 0.000000 72.491501 5.009760 -159.070007 -98.437897 0.196220 0.115821 -0.060772 0.044765 -153.123001 -19.845390 -3.305647 -2.754010 46.303646 2.087095 3.219710 -17.840380 2.192418 2.215976 -14.975297 -3.175710 18.255619 52.062180 -2.051919 -3.421924 -30.218161 -11.330085 -5.758596 
4.078967 42.110176 -22.191248 -4.053270 4.081600 -43.785000 -18.291201 -0.351083 0.342147 17.176800 1.316070 0.039492 4.068040 -0.262742 4.871640 7.967580 5.272270 2.747450 2.000000 -2.000000 0.000000 95.557297 -174.542007 -7.790680 123.848000 -0.133257 0.131456 0.053010 -0.051159 -155.514999 -2.000000 2.000000 0.000000 72.335403 6.093480 -158.949997 -98.144897 0.196862 0.115915 -0.061120 0.045946 -153.561996 -19.691883 -3.258652 -1.496279 46.726753 2.064711 3.258591 -17.242861 2.225237 2.206261 -14.751088 -3.563551 18.650587 51.815487 -2.087520 -3.405936 -29.578938 -10.979792 -5.392731 
4.282917 42.367699 -22.038357 -3.935030 3.926300 -44.820000 -18.338800 0.026187 0.597870 16.952299 1.228040 0.215638 3.907100 -0.933459 5.477560 8.093330 5.066630 3.047350 2.000000 -2.000000 0.000000 94.590500 -175.167999 -7.489320 124.238998 -0.132430 0.130897 0.052235 -0.048794 -154.626999 -2.000000 2.000000 0.000000 72.130699 6.748540 -159.291000 -99.521896 0.193848 0.115447 -0.061199 0.046208 -153.660004 -20.239067 -2.714862 -0.001129 47.671474 2.002265 3.335633 -15.310836 1.741465 1.987901 -15.184900 -3.916590 18.648886 51.520443 -2.106023 -3.382759 -27.580484 -9.603003 -4.254147 
4.486867 42.625221 -21.885576 -3.826700 3.780640 -45.847801 -18.376600 0.412583 0.850160 16.718000 1.140020 0.392278 3.727690 -1.604040 6.087200 8.219130 4.870770 3.356820 2.000000 -2.000000 0.000000 93.623802 -175.802994 -7.197760 124.628998 -0.131606 0.130332 0.051504 -0.046444 -153.748001 -2.000000 2.000000 0.000000 71.926102 7.403580 -159.621002 -100.889000 0.190866 0.114910 -0.061270 0.046443 -153.748001 -20.725491 -2.162003 1.481937 48.488014 1.933614 3.382910 -13.308612 1.246394 1.793999 -15.570519 -4.295301 18.674175 51.206612 -2.123882 -3.379429 -25.650188 -8.208458 -3.161857 
4.733910 42.993549 -21.744930 -3.787170 3.693110 -46.952801 -18.258499 0.743916 1.039050 16.620399 1.091170 0.530405 3.207650 -2.293820 6.696350 8.089390 4.579580 3.637810 2.000000 -2.000000 0.000000 93.057297 -176.029007 -6.875990 125.694000 -0.129381 0.128764 0.051386 -0.046051 -153.600998 -2.000000 2.000000 0.000000 71.780296 8.332230 -160.029007 -103.692001 0.184799 0.113589 -0.061230 0.046312 -153.699005 -21.428156 -1.489607 2.886354 49.392269 1.863724 3.425626 -9.675294 0.001428 1.532968 -16.144955 -5.086452 18.634453 50.783916 -2.150104 -3.353208 -22.889557 -5.625846 -1.679960 
4.980954 43.361759 -21.604057 -3.757450 3.605530 -48.058399 -18.130800 1.084870 1.225950 16.513000 1.032580 0.669208 2.668550 -2.974270 7.319380 7.950080 4.288350 3.919340 2.000000 -2.000000 0.000000 92.500603 -176.253998 -6.544450 126.758003 -0.127186 0.127156 0.051261 -0.045632 -153.445007 -2.000000 2.000000 0.000000 71.624702 9.251120 -160.436996 -106.485001 0.178824 0.111978 -0.061183 0.046155 -153.639999 -22.121546 -0.815833 4.300484 50.286446 1.812698 3.485398 -6.027255 -1.277203 1.334153 -16.772173 -5.860773 18.599434 50.381104 -2.175995 -3.335908 -20.191473 -2.953145 -0.353893 
5.208573 43.686081 -21.450377 -3.687740 3.293960 -49.088799 -17.876600 1.403730 1.382120 16.620600 0.906061 0.787278 2.236970 -3.475620 7.757410 7.772010 4.026500 4.112870 2.000000 -2.000000 0.000000 92.890999 -175.824997 -6.094290 128.184006 -0.124293 0.124938 0.051719 -0.047150 -154.011993 -2.000000 2.000000 0.000000 71.508301 10.521400 -160.785995 -109.903000 0.171631 0.109614 -0.061485 0.047150 -154.011993 -22.742384 0.160363 5.428101 51.083401 1.737066 3.535612 -2.427349 -2.665057 1.409193 -16.874796 -6.373991 19.107645 49.484886 -2.259104 -3.277258 -18.041008 -0.677976 0.467621 
5.436204 44.010387 -21.296812 -3.618190 2.982340 -50.119900 -17.622601 1.729110 1.528270 16.718399 0.769754 0.895629 1.805820 -3.968060 8.194750 7.584340 3.764550 4.298330 2.000000 -2.000000 0.000000 93.281502 -175.406006 -5.644140 129.610001 -0.121456 0.122649 0.052193 -0.048664 -154.578003 -2.000000 2.000000 0.000000 71.391998 11.791800 -161.134003 -113.320999 0.164591 0.106826 -0.061802 0.048168 -154.391998 -23.354475 1.148902 6.591131 51.897713 1.699316 3.572209 1.150720 -4.023324 1.558237 -17.042130 -6.878882 19.626226 48.638832 -2.317731 -3.224405 -15.935549 1.652287 1.181655 
5.613890 44.149384 -21.126284 -3.607320 2.631500 -50.683201 -17.409901 1.970150 1.477450 16.962601 0.721235 0.911735 1.705420 -4.298250 8.459090 7.475530 3.570250 4.416230 2.000000 -2.000000 0.000000 94.550697 -174.410995 -5.445680 131.201996 -0.118357 0.120011 0.052785 -0.050485 -155.261993 -2.000000 2.000000 0.000000 71.119698 13.384500 -161.531006 -116.817001 0.157575 0.103544 -0.062749 0.051080 -155.485992 -23.625893 1.884036 6.958604 52.142506 1.701303 3.585634 1.263520 -2.309796 1.639096 -16.639158 -7.226646 20.551016 48.026550 -2.390746 -3.171586 -15.446256 3.579607 1.679003 
5.791574 44.288246 -20.955753 -3.586800 2.270940 -51.245701 -17.207300 2.220960 1.424880 17.206800 0.672677 0.927427 1.605060 -4.618660 8.724910 7.366810 3.375890 4.534860 2.000000 -2.000000 0.000000 95.820000 -173.414993 -5.257770 132.783997 -0.115351 0.117304 0.053398 -0.052298 -155.945007 -2.000000 2.000000 0.000000 70.837700 14.977200 -161.936996 -120.313004 0.150772 0.099841 -0.063762 0.054000 -156.589996 -23.837008 2.608235 7.340864 52.426033 1.700938 3.586547 1.278587 -0.606876 1.691256 -16.255173 -7.574242 21.494541 47.453995 -2.461401 -3.135886 -15.010489 5.526665 2.194310 
5.899194 44.188255 -20.789942 -3.703360 1.968540 -51.435902 -17.162001 2.398260 1.259380 17.382500 0.838556 0.861706 2.048020 -4.518900 8.859890 7.425560 3.385320 4.617020 2.000000 -2.000000 0.000000 98.084999 -171.531006 -5.175190 134.278000 -0.112581 0.114673 0.064199 -0.064975 -157.048996 -2.000000 2.000000 0.000000 70.575699 16.853500 -162.529007 -123.378998 0.145001 0.096257 -0.074673 0.066870 -157.770996 -23.633940 2.943120 6.780451 51.559776 1.791061 3.527388 -0.862435 3.812651 1.929661 -15.813491 -7.901221 21.639748 48.217960 -2.467884 -3.171400 -15.777205 2.826442 1.423616 
6.006815 44.088127 -20.624018 -3.810190 1.656490 -51.623901 -17.107100 2.585100 1.091710 17.558100 0.994730 0.797514 2.490860 -4.409310 8.995890 7.494090 3.394680 4.709540 2.000000 -2.000000 0.000000 100.349998 -169.645996 -5.160980 135.772003 -0.109881 0.111971 0.065290 -0.058100 -158.151993 -2.000000 2.000000 0.000000 70.284698 18.720200 -163.136993 -126.435997 0.139448 0.092382 -0.075883 0.060184 -158.953003 -23.425076 3.295120 6.209194 50.683521 1.880348 3.466004 -3.071687 8.210565 2.370954 -15.297563 -8.273983 21.786356 48.854958 -2.450318 -3.180049 -16.558685 0.120581 0.586530 
6.065444 43.715801 -20.459555 -4.337690 1.626190 -51.451401 -17.177401 2.575220 0.898361 17.694599 1.316720 0.695913 3.097140 -3.981670 8.971920 7.622240 3.559640 4.717710 2.000000 -2.000000 0.000000 102.898003 -167.350006 -5.419290 136.923996 -0.107848 0.109839 0.067069 -0.062484 -159.841995 -2.000000 2.000000 0.000000 69.974701 20.685801 -164.322998 -128.916000 0.135098 0.089023 -0.077976 0.065118 -160.867004 -22.808723 2.832440 4.317310 49.031105 2.011709 3.363801 -4.415807 8.640712 2.674013 -15.033856 -9.081326 21.739710 51.261143 -2.349258 -3.307046 -17.565830 -1.998452 -0.178925 
6.124095 43.343601 -20.295092 -4.855400 1.595820 -51.278099 -17.237801 2.565400 0.704795 17.830900 1.638770 0.595851 3.713180 -3.555120 8.947160 7.750530 3.734280 4.727240 2.000000 -2.000000 0.000000 105.484001 -165.063995 -5.775320 138.067001 -0.105874 0.107685 0.068975 -0.066814 -161.531006 -2.000000 2.000000 0.000000 69.616096 22.651501 -165.539001 -131.397003 0.130897 0.085479 -0.080221 0.069955 -162.770996 -22.223461 2.377122 2.439135 47.504879 2.153702 3.267688 -5.804485 9.053192 2.953845 -14.805550 -9.863008 21.687670 53.734226 -2.251352 -3.417987 -18.590029 -4.097820 -0.980774 
6.197667 42.717495 -20.168262 -5.548540 1.399660 -51.132000 -17.295601 2.453400 0.655641 17.801399 1.765540 0.559619 3.776340 -2.777990 8.842750 7.615250 4.008030 4.676850 2.000000 -2.000000 0.000000 108.255997 -162.220993 -6.608660 138.643005 -0.104895 0.106584 0.070888 -0.070840 -163.123001 -2.000000 2.000000 0.000000 69.277496 24.549999 -167.268997 -133.554993 0.127370 0.082250 -0.082997 0.075415 -164.959000 -21.671877 1.975527 0.472181 48.206184 2.192498 3.248195 -7.868029 6.155175 2.790436 -14.300095 -10.649558 21.707659 56.217995 -2.111895 -3.519674 -17.712868 -3.938415 -0.897006 
